HIERARCHY
ROOT Model_Hips
{
	OFFSET 0.000000 96.915077 0.000000
	CHANNELS 6 Xposition Yposition Zposition Xrotation Yrotation Zrotation
	JOINT Model_Spine
	{
		OFFSET 0.000000 11.137703 -1.289900
		CHANNELS 3 Xrotation Yrotation Zrotation
		JOINT Model_Spine1
		{
			OFFSET 0.000000 12.993942 -1.504922
			CHANNELS 3 Xrotation Yrotation Zrotation
			JOINT Model_Spine2
			{
				OFFSET 0.000000 14.850220 -1.719911
				CHANNELS 3 Xrotation Yrotation Zrotation
				JOINT Model_Neck
				{
					OFFSET 0.000000 16.706543 -1.934903
					CHANNELS 3 Xrotation Yrotation Zrotation
					JOINT Model_Head
					{
						OFFSET 0.000000 10.471298 2.002100
						CHANNELS 3 Xrotation Yrotation Zrotation
						JOINT Model_HeadTop_End
						{
							OFFSET 0.000000 20.842606 3.985100
							CHANNELS 3 Xrotation Yrotation Zrotation
							End Site
							{
								OFFSET 0.000000 21.220154 0.000000
							}
						}
					}
				}
				JOINT Model_LeftShoulder
				{
					OFFSET 7.008500 14.768600 -1.919946
					CHANNELS 3 Xrotation Yrotation Zrotation
					JOINT Model_LeftArm
					{
						OFFSET 14.126271 -3.718048 0.029937
						CHANNELS 3 Xrotation Yrotation Zrotation
						JOINT Model_LeftForeArm
						{
							OFFSET 28.282801 0.000000 0.000000
							CHANNELS 3 Xrotation Yrotation Zrotation
							JOINT Model_LeftHand
							{
								OFFSET 26.204689 0.000000 0.000000
								CHANNELS 3 Xrotation Yrotation Zrotation
								End Site
								{
									OFFSET 26.204704 0.000000 0.000000
								}
							}
						}
					}
				}
				JOINT Model_RightShoulder
				{
					OFFSET -7.008500 14.768555 -1.949840
					CHANNELS 3 Xrotation Yrotation Zrotation
					JOINT Model_RightArm
					{
						OFFSET -14.126281 -3.718018 -0.029932
						CHANNELS 3 Xrotation Yrotation Zrotation
						JOINT Model_RightForeArm
						{
							OFFSET -28.283798 0.000000 -0.000001
							CHANNELS 3 Xrotation Yrotation Zrotation
							JOINT Model_RightHand
							{
								OFFSET -26.204193 0.000000 -0.000001
								CHANNELS 3 Xrotation Yrotation Zrotation
								End Site
								{
									OFFSET -26.204208 0.000000 -0.000001
								}
							}
						}
					}
				}
			}
		}
	}
	JOINT Model_LeftUpLeg
	{
		OFFSET 8.327700 -6.193199 -0.402800
		CHANNELS 3 Xrotation Yrotation Zrotation
		JOINT Model_LeftLeg
		{
			OFFSET 0.735802 -42.108742 -0.610721
			CHANNELS 3 Xrotation Yrotation Zrotation
			JOINT Model_LeftFoot
			{
				OFFSET -0.735806 -36.833748 -0.172876
				CHANNELS 3 Xrotation Yrotation Zrotation
				JOINT Model_LeftToeBase
				{
					OFFSET -0.565857 -11.977769 16.297714
					CHANNELS 3 Xrotation Yrotation Zrotation
					JOINT Model_LeftToe_End
					{
						OFFSET -0.111712 -0.312793 7.857784
						CHANNELS 3 Xrotation Yrotation Zrotation
						End Site
						{
							OFFSET -0.111712 -0.312793 7.857784
						}
					}
				}
			}
		}
	}
	JOINT Model_RightUpLeg
	{
		OFFSET -8.327700 -6.193199 -0.516500
		CHANNELS 3 Xrotation Yrotation Zrotation
		JOINT Model_RightLeg
		{
			OFFSET -0.735785 -42.108738 -0.434061
			CHANNELS 3 Xrotation Yrotation Zrotation
			JOINT Model_RightFoot
			{
				OFFSET 0.735776 -36.833748 -0.021630
				CHANNELS 3 Xrotation Yrotation Zrotation
				JOINT Model_RightToeBase
				{
					OFFSET 0.565817 -11.977745 15.903093
					CHANNELS 3 Xrotation Yrotation Zrotation
					JOINT Model_RightToe_End
					{
						OFFSET 0.111702 -0.312791 7.811342
						CHANNELS 3 Xrotation Yrotation Zrotation
						End Site
						{
							OFFSET 0.111702 -0.312791 7.811342
						}
					}
				}
			}
		}
	}
}
MOTION
Frames: 9
Frame Time: 0.016667
4.186309 96.232704 -10.360270 -6.469775 -42.020608 -1.386324 3.409954 -2.749447 -2.447529 1.013623 -1.895728 -5.133913 1.063812 -1.436592 -0.929389 7.597230 -6.076864 1.622333 7.900266 -5.728411 1.768361 0.000000 0.000000 0.000001 1.144965 -14.921766 -15.003562 24.880955 -13.774110 -46.688926 -0.000020 -14.804158 0.000012 -0.000001 0.000000 0.000001 3.496525 8.937376 20.036346 13.468085 17.525956 58.805429 -0.000005 22.019459 0.000017 0.000001 -0.000001 -0.000000 -20.078470 19.719110 5.887872 46.427603 2.258990 -2.632937 -2.750476 30.116357 1.836128 -11.620819 0.362920 -6.371503 0.000000 0.000001 -0.000000 -14.641771 -33.888086 -11.549583 21.600004 -9.768746 -7.016217 -5.657126 -16.602136 6.369799 -4.928523 0.000067 -0.000001 -0.000000 -0.000000 0.000000 
4.210032 96.292053 -10.060498 -6.835292 -44.172548 -1.676077 3.462771 -2.644657 -2.525418 1.038538 -1.852220 -5.049801 1.099832 -1.386842 -0.866330 7.494691 -5.698150 1.510157 7.774710 -5.364535 1.638941 -0.000000 -0.000002 0.000000 1.137613 -14.836103 -15.042114 24.365143 -13.830482 -47.033581 -0.000019 -14.515168 -0.000007 0.000000 -0.000000 -0.000001 3.807693 8.435654 20.326061 13.537377 18.080785 58.894618 0.000018 21.470556 -0.000017 0.000001 0.000000 0.000001 -19.921754 18.875055 5.420221 46.094150 1.295961 -2.361768 -1.763099 28.818095 0.617947 -10.982697 0.414019 -7.746617 0.000001 0.000000 -0.000000 -14.604751 -33.857179 -11.530441 21.059527 -9.749366 -7.306159 -5.413524 -14.472131 6.351029 -4.928519 0.000080 0.000006 0.000000 0.000001 0.000000 
4.203923 96.359993 -9.691397 -7.240631 -46.323624 -2.020254 3.547966 -2.567605 -2.556702 1.091085 -1.865302 -4.927426 1.164827 -1.398157 -0.818560 7.368260 -5.305382 1.382970 7.624570 -4.988877 1.495130 0.000000 -0.000001 -0.000000 1.131740 -14.756195 -15.073322 23.705529 -14.088121 -47.523688 0.000001 -14.120057 -0.000003 0.000000 0.000000 -0.000001 4.122616 7.956533 20.630952 13.537529 18.599059 58.916283 0.000003 20.848162 0.000008 0.000002 0.000000 0.000001 -19.402966 17.705911 4.549221 44.925146 0.699618 -1.719757 -1.285665 27.033115 -0.361836 -11.128240 0.457706 -7.251674 0.000001 -0.000000 -0.000000 -14.498504 -33.875252 -11.532630 20.449235 -9.731366 -7.549845 -5.150300 -12.276024 6.351630 -4.928519 -0.000013 -0.000012 -0.000000 0.000000 0.000000 
4.163936 96.435860 -9.275519 -7.616173 -48.517771 -2.346227 3.666755 -2.505419 -2.547501 1.173733 -1.918429 -4.783070 1.259557 -1.456205 -0.806733 7.216268 -4.900974 1.232975 7.448384 -4.604115 1.329257 -0.000000 -0.000003 0.000001 1.125869 -14.700285 -15.103754 22.939313 -14.573984 -48.118358 0.000002 -13.661022 -0.000003 -0.000000 -0.000000 -0.000000 4.425578 7.516511 20.934006 13.493836 19.127646 58.872303 -0.000002 20.160032 0.000001 -0.000001 -0.000000 0.000001 -18.665836 16.237154 3.317491 43.023976 0.330748 -0.680553 -0.952194 26.676397 -1.576575 -11.215446 0.399753 -6.229026 0.000001 -0.000000 -0.000000 -14.411962 -33.894780 -11.569062 19.792490 -9.714587 -7.744827 -4.875993 -10.016410 6.351602 -4.928518 -0.000009 0.000002 0.000000 -0.000001 0.000000 
4.098869 96.526466 -8.834373 -7.948999 -50.776705 -2.618031 3.808794 -2.440383 -2.506973 1.276728 -1.974020 -4.630103 1.371743 -1.524671 -0.841454 7.042477 -4.486789 1.058823 7.249949 -4.211692 1.139838 0.000000 -0.000001 0.000000 1.119221 -14.676471 -15.136836 22.110004 -15.284082 -48.781382 0.000007 -13.179192 -0.000008 0.000000 0.000000 0.000000 4.695779 7.143373 21.202878 13.418931 19.695462 58.786489 -0.000000 19.409125 -0.000011 -0.000001 0.000001 -0.000000 -17.729479 14.539145 1.826113 40.412201 0.143656 0.689904 -0.554516 27.099798 -2.928113 -10.535248 0.278709 -5.236832 0.000000 -0.000000 0.000000 -14.364118 -33.913610 -11.638505 19.041160 -9.698522 -7.914453 -4.555191 -7.674313 6.342383 -4.928527 0.000045 -0.000000 0.000000 0.000000 0.000000 
4.017188 96.625099 -8.385455 -8.267038 -53.143349 -2.884429 3.954137 -2.353737 -2.436266 1.379742 -1.982276 -4.473157 1.478367 -1.553938 -0.918483 6.853944 -4.064427 0.864609 7.036569 -3.812964 0.930862 -0.000000 0.000001 -0.000001 1.111765 -14.682878 -15.172702 21.255089 -16.184586 -49.490424 -0.000011 -12.703026 0.000003 0.000000 0.000000 0.000001 4.910122 6.870269 21.384125 13.303392 20.300594 58.712443 0.000026 18.595004 -0.000005 0.000002 0.000000 -0.000001 -16.597426 12.703392 0.286764 37.109043 0.098594 2.263174 0.055680 27.298313 -4.337889 -9.031084 0.123098 -4.102588 0.000001 -0.000002 -0.000000 -14.336796 -33.920601 -11.697012 18.203759 -9.683489 -8.052139 -4.187204 -5.225238 6.301995 -4.928523 0.000071 0.000002 0.000001 0.000001 0.000000 
3.915028 96.714935 -7.947073 -8.585915 -55.638960 -3.180732 4.078667 -2.231146 -2.327824 1.458615 -1.899028 -4.307381 1.553460 -1.498741 -1.021083 6.658861 -3.636035 0.657626 6.816234 -3.409537 0.709456 0.000001 -0.000000 0.000000 1.103906 -14.711510 -15.209547 20.398744 -17.222465 -50.237776 0.000017 -12.244017 0.000002 -0.000001 -0.000000 -0.000000 5.047430 6.726817 21.406776 13.116397 20.912955 58.728309 0.000002 17.716488 0.000017 -0.000003 0.000000 0.000000 -15.268562 10.822880 -1.072419 33.121988 0.168643 3.843405 0.911901 26.222058 -5.754883 -9.163911 0.059762 -1.772631 0.000001 -0.000001 -0.000000 -14.366719 -33.886788 -11.730084 17.399159 -9.674785 -8.148803 -3.834546 -2.680492 6.220753 -4.928517 0.000003 0.000002 -0.000000 -0.000000 0.000000 
3.782449 96.780876 -7.533969 -8.873132 -58.254888 -3.530147 4.161747 -2.067859 -2.173746 1.494971 -1.705094 -4.123117 1.578645 -1.338089 -1.128079 6.464998 -3.204873 0.446378 6.597235 -3.003870 0.484069 -0.000001 0.000001 -0.000000 1.096218 -14.752647 -15.244863 19.550790 -18.339671 -51.025843 -0.000011 -11.798603 -0.000006 -0.000001 -0.000000 -0.000000 5.093703 6.732799 21.201744 12.817347 21.486669 58.917417 -0.000004 16.774449 -0.000004 0.000002 0.000000 -0.000000 -13.793128 8.940150 -2.023734 28.511617 0.357450 5.178008 1.886588 23.147958 -6.964400 -8.106410 0.012901 -0.812524 0.000000 -0.000002 0.000000 -14.472423 -33.786784 -11.701011 16.738084 -9.679105 -8.148413 -3.560834 -0.081350 6.070078 -4.928524 0.000025 -0.000007 0.000000 0.000001 0.000000 
3.362908 96.799591 -6.657727 -9.754790 -61.869814 -4.402515 4.193655 -1.869826 -1.953635 1.484298 -1.417708 -3.913285 1.551462 -1.087550 -1.223391 6.279440 -2.775450 0.239546 6.386926 -2.600051 0.263442 -0.000000 0.000001 -0.000001 1.089342 -14.797694 -15.275891 18.710354 -19.484346 -51.859840 0.000010 -11.354396 -0.000020 0.000000 -0.000000 -0.000001 5.046816 6.895122 20.731021 12.386143 21.937852 59.336647 0.000014 15.692582 0.000008 0.000003 -0.000000 0.000001 -11.379413 8.534685 -2.331982 24.539060 0.718559 5.257212 0.532737 18.558372 -6.630276 -7.204996 -0.000030 -0.000000 0.000000 0.000000 -0.000000 -14.725818 -33.684150 -12.017865 16.500296 -9.694287 -8.331125 -3.658010 3.577829 6.286510 -4.928519 0.000031 0.000001 0.000000 0.000001 0.000000 
